<mxfile host="app.diagrams.net" modified="2024-06-26T12:22:48.366Z" agent="Mozilla/5.0 (X11; Linux x86_64; rv:126.0) Gecko/20100101 Firefox/126.0" version="24.6.3" etag="h00XJRmG8tPOGbSyNxa6" type="github">
  <diagram name="Page-1" id="LfwydrO_ZdEroi2TiCD8">
    <mxGraphModel>
      <root>
        <mxCell id="0" />
        <mxCell id="1" parent="0" />
      </root>
    </mxGraphModel>
  </diagram>
</mxfile>
